<?xml version="1.0" encoding="UTF-8" standalone="no" ?>
<!DOCTYPE svg PUBLIC "-//W3C//DTD SVG 1.1//EN" "http://www.w3.org/Graphics/SVG/1.1/DTD/svg11.dtd">
<svg xmlns="http://www.w3.org/2000/svg" xmlns:xlink="http://www.w3.org/1999/xlink" version="1.1" width="1280" height="1024" viewBox="0 0 1280 1024" xml:space="preserve">
<desc>Created with Fabric.js 5.3.0</desc>
<defs>
</defs>
<g transform="matrix(1 0 0 1 640 512)" id="background-logo"  >
<rect style="stroke: none; stroke-width: 0; stroke-dasharray: none; stroke-linecap: butt; stroke-dashoffset: 0; stroke-linejoin: miter; stroke-miterlimit: 4; fill: rgb(255,255,255); fill-opacity: 0; fill-rule: nonzero; opacity: 1;"  paint-order="stroke"  x="-640" y="-512" rx="0" ry="0" width="1280" height="1024" />
</g>
<g transform="matrix(3.752669807845809 0 0 3.752669807845809 627.1253604902669 354.10140767502696)" id="logo-logo"  >
<g style=""  paint-order="stroke"   >
		<g transform="matrix(1.4547922201123404 0 0 1.4547922201123404 22.934309957968253 -21.17133789996936)"  >
<radialGradient id="SVGID_92_124911" gradientUnits="userSpaceOnUse" gradientTransform="matrix(0.7071068 -0.7071068 0.7071068 0.7071068 -37.5097275 71.0416565)"  cx="124.7116241" cy="214.6345673" r="57.6688728" fx="124.7116241" fy="214.6345673">
<stop offset="0%" style="stop-color:rgb(0,168,255);stop-opacity: 1"/>
<stop offset="26.53136%" style="stop-color:rgb(51,199,255);stop-opacity: 1"/>
<stop offset="69.1271%" style="stop-color:rgb(140,252,255);stop-opacity: 1"/>
<stop offset="87.18879000000001%" style="stop-color:rgb(168,251,255);stop-opacity: 1"/>
<stop offset="100%" style="stop-color:rgb(191,251,255);stop-opacity: 1"/>
</radialGradient>
<path style="stroke: none; stroke-width: 1; stroke-dasharray: none; stroke-linecap: butt; stroke-dashoffset: 0; stroke-linejoin: miter; stroke-miterlimit: 4; fill: url(#SVGID_92_124911); fill-rule: nonzero; opacity: 1;"  paint-order="stroke"  transform=" translate(-203.2646636, -135.44717400000002)" d="M 237.4735107 169.6560211 C 235.37791439999998 171.75161740000001 232.59532159999998 172.9051971 229.6402587 172.9059295 L 202.1372527 172.9059295 C 196.02589410000002 172.9051971 191.0548247 167.934143 191.0540923 161.82276910000002 L 191.0548247 133.3077239 C 191.05557240000002 129.95166010000003 189.7479399 126.79683680000001 187.37518300000002 124.42408740000002 C 185.0016936 122.05059800000002 181.84686270000003 120.74296560000002 178.49081410000002 120.74370560000001 L 171.18385300000003 120.74443800000002 C 168.21845990000003 120.74370560000001 165.80664050000001 118.33188610000002 165.80590810000004 115.36649310000001 L 165.80590810000004 103.36636340000001 C 165.80664050000004 101.9931334 166.39263910000003 100.61990340000001 167.41502370000003 99.59753410000002 C 168.43739310000004 98.57515710000001 169.81062310000004 97.98915860000002 171.18385300000003 97.98841850000002 L 183.18397510000003 97.98841850000002 C 186.14936820000003 97.98915860000002 188.56118760000004 100.40097800000002 188.56192000000001 103.36636340000003 L 188.5611876 110.67332450000002 C 188.5604552 114.02938070000002 189.86808760000002 117.18420400000002 192.241577 119.55769340000002 C 194.6143187 121.93045040000001 197.76914960000002 123.23808280000002 201.1252135 123.23734280000002 L 229.6402587 123.23660270000002 C 235.7516173 123.23734280000002 240.7226867 128.20840450000003 240.7234191 134.31977840000002 L 240.7234191 161.82276910000002 C 240.7226868 164.777832 239.5691071 167.5604248 237.4735107 169.6560211 z" stroke-linecap="round" />
</g>
		<g transform="matrix(1.4547922201123404 0 0 1.4547922201123404 22.93437658745188 -21.171265596796047)"  >
<radialGradient id="SVGID_93_124912" gradientUnits="userSpaceOnUse" gradientTransform="matrix(0.7071068 -0.7071068 0.7071068 0.7071068 -37.5097275 71.0416565)"  cx="124.7116241" cy="214.6131897" r="40.2289467" fx="124.7116241" fy="214.6131897">
<stop offset="0%" style="stop-color:rgb(191,251,255);stop-opacity: 1"/>
<stop offset="12.81118%" style="stop-color:rgb(168,251,255);stop-opacity: 1"/>
<stop offset="30.872899999999998%" style="stop-color:rgb(140,252,255);stop-opacity: 1"/>
<stop offset="73.46865%" style="stop-color:rgb(51,199,255);stop-opacity: 1"/>
<stop offset="100%" style="stop-color:rgb(0,168,255);stop-opacity: 1"/>
</radialGradient>
<path style="stroke: none; stroke-width: 1; stroke-dasharray: none; stroke-linecap: butt; stroke-dashoffset: 0; stroke-linejoin: miter; stroke-miterlimit: 4; fill: url(#SVGID_93_124912); fill-rule: nonzero; opacity: 1;"  paint-order="stroke"  transform=" translate(-203.26470939999996, -135.4472237)" d="M 229.6400757 124.1979828 L 201.1252899 124.1979828 C 197.53831480000002 124.1979828 194.09826660000002 122.77306370000001 191.5618896 120.2366867 L 191.5618896 120.2366791 C 189.0254821 117.70028690000001 187.6005706 114.2601853 187.6005859 110.67318730000001 L 187.6006469 103.36627200000001 C 187.6006622 100.92697150000001 185.62322989999998 98.94951630000001 183.18391409999998 98.94951630000001 L 171.18376149999997 98.94951630000001 C 168.74446099999997 98.94951630000001 166.76699819999996 100.92697140000001 166.76699819999996 103.36627200000001 L 166.76699819999996 115.3664322 C 166.76699819999996 117.8057404 168.74446099999997 119.7831802 171.18376149999997 119.78315740000001 L 178.49067679999996 119.78310400000001 C 182.07766719999995 119.7830811 185.51777639999995 121.20800020000001 188.05416859999997 123.74440010000001 L 188.05416859999997 123.74440770000001 C 190.59054559999996 126.28077700000001 192.01547229999997 129.7208405 192.01547229999997 133.3078003 L 192.01547229999997 161.8225861 C 192.01547229999997 167.4130097 196.54739369999996 171.9449311 202.13781729999997 171.9449311 L 229.64007559999996 171.9449311 C 235.23048389999997 171.9449311 239.76242059999996 167.4130097 239.76242059999996 161.8225861 L 239.76242059999996 134.3203278 C 239.7624207 128.7299042 235.230484 124.1979828 229.6400757 124.1979828 z" stroke-linecap="round" />
</g>
		<g transform="matrix(1.4547922201123404 0 0 1.4547922201123404 41.30009626402966 -2.8055515939079214)"  >
<linearGradient id="SVGID_94_124913" gradientUnits="userSpaceOnUse" gradientTransform="matrix(4.489659e-11 -1 1 4.489659e-11 -22.5649185 151.5462494)"  x1="-14.0346966" y1="255.9633484" x2="20.7347717" y2="221.1938782">
<stop offset="0%" style="stop-color:rgb(0,168,255);stop-opacity: 1"/>
<stop offset="26.53136%" style="stop-color:rgb(51,199,255);stop-opacity: 1"/>
<stop offset="69.1271%" style="stop-color:rgb(140,252,255);stop-opacity: 1"/>
<stop offset="87.18879000000001%" style="stop-color:rgb(168,251,255);stop-opacity: 1"/>
<stop offset="100%" style="stop-color:rgb(191,251,255);stop-opacity: 1"/>
</linearGradient>
<path style="stroke: none; stroke-width: 1; stroke-dasharray: none; stroke-linecap: butt; stroke-dashoffset: 0; stroke-linejoin: miter; stroke-miterlimit: 4; fill: url(#SVGID_94_124913); fill-rule: nonzero; opacity: 1;"  paint-order="stroke"  transform=" translate(-215.88899995000003, -148.07151035000004)" d="M 195.8968048 159.5870361 L 195.8968048 137.4075012 C 195.8968048 132.2556915 200.07316590000002 128.07931520000002 205.22497560000002 128.07931520000002 L 227.40451050000001 128.07931520000002 C 232.08605960000003 128.07931520000002 235.8811951 131.8744507 235.8811951 136.55599980000002 L 235.8811951 159.58703620000003 C 235.8811951 164.26857000000004 232.08605960000003 168.06370550000003 227.40451050000001 168.06370550000003 L 204.3734894 168.06370550000003 C 199.6919403 168.0637054 195.8968048 164.2685699 195.8968048 159.5870361 z" stroke-linecap="round" />
</g>
		<g transform="matrix(1.4547922201123404 0 0 1.4547922201123404 -15.00786130807694 -59.113509166014495)"  >
<linearGradient id="SVGID_95_124914" gradientUnits="userSpaceOnUse" gradientTransform="matrix(4.489659e-11 -1 1 4.489659e-11 -22.5649185 151.5462494)"  x1="35.1147156" y1="206.8139343" x2="49.3281898" y2="192.6004639">
<stop offset="0%" style="stop-color:rgb(191,251,255);stop-opacity: 1"/>
<stop offset="12.81118%" style="stop-color:rgb(168,251,255);stop-opacity: 1"/>
<stop offset="30.872899999999998%" style="stop-color:rgb(140,252,255);stop-opacity: 1"/>
<stop offset="73.46865%" style="stop-color:rgb(51,199,255);stop-opacity: 1"/>
<stop offset="100%" style="stop-color:rgb(0,168,255);stop-opacity: 1"/>
</linearGradient>
<path style="stroke: none; stroke-width: 1; stroke-dasharray: none; stroke-linecap: butt; stroke-dashoffset: 0; stroke-linejoin: miter; stroke-miterlimit: 4; fill: url(#SVGID_95_124914); fill-rule: nonzero; opacity: 1;"  paint-order="stroke"  transform=" translate(-177.18384549999996, -109.3663559)" d="M 169.0219574 114.0676117 L 169.0219574 104.6651001 C 169.0219574 102.7538452 170.5713348 101.2044678 172.48258969999998 101.2044678 L 181.88510129999997 101.2044678 C 183.79635619999996 101.2044678 185.34573359999996 102.7538452 185.34573359999996 104.6651001 L 185.34573359999996 113.783844 C 185.34573359999996 115.8518219 183.66931149999996 117.528244 181.60133359999995 117.528244 L 172.48258969999995 117.528244 C 170.5713348 117.528244 169.0219574 115.9788666 169.0219574 114.0676117 z" stroke-linecap="round" />
</g>
		<g transform="matrix(1.4547922201123404 0 0 1.4547922201123404 -22.934309957968196 21.171332444498518)"  >
<radialGradient id="SVGID_96_124915" gradientUnits="userSpaceOnUse" gradientTransform="matrix(-0.7071068 0.7071068 -0.7071068 -0.7071068 171.5097198 108.9583435)"  cx="39.1517029" cy="-40.6309853" r="57.6688728" fx="39.1517029" fy="-40.6309853">
<stop offset="0%" style="stop-color:rgb(0,168,255);stop-opacity: 1"/>
<stop offset="26.53136%" style="stop-color:rgb(51,199,255);stop-opacity: 1"/>
<stop offset="69.1271%" style="stop-color:rgb(140,252,255);stop-opacity: 1"/>
<stop offset="87.18879000000001%" style="stop-color:rgb(168,251,255);stop-opacity: 1"/>
<stop offset="100%" style="stop-color:rgb(191,251,255);stop-opacity: 1"/>
</radialGradient>
<path style="stroke: none; stroke-width: 1; stroke-dasharray: none; stroke-linecap: butt; stroke-dashoffset: 0; stroke-linejoin: miter; stroke-miterlimit: 4; fill: url(#SVGID_96_124915); fill-rule: nonzero; opacity: 1;"  paint-order="stroke"  transform=" translate(-171.7353364, -164.55282204999997)" d="M 137.5264893 130.3439789 C 139.62208560000002 128.24838259999999 142.40467840000002 127.09480289999999 145.3597413 127.09406279999999 L 172.8627473 127.09406279999999 C 178.97410589999998 127.09480289999999 183.9451753 132.0658569 183.9459077 138.1772308 L 183.9451753 166.692276 C 183.94442759999998 170.04833979999998 185.2520601 173.20315549999998 187.62481699999998 175.5759125 C 189.9983064 177.9494019 193.15313729999997 179.2570343 196.50918589999998 179.25630189999998 L 203.81614699999997 179.25555419999998 C 206.78154009999997 179.25630189999998 209.19335949999999 181.66812129999997 209.19409189999996 184.63349909999997 L 209.19409189999996 196.63363639999997 C 209.19335949999996 198.00686639999998 208.60736089999997 199.38009639999999 207.58497629999997 200.40246569999996 C 206.56260689999996 201.42483509999997 205.18937689999996 202.01083359999996 203.81614699999997 202.01158129999996 L 191.81602489999997 202.01158129999996 C 188.85063179999997 202.01083359999996 186.43881239999996 199.59901419999997 186.43807999999999 196.63363639999997 L 186.4388124 189.32667529999998 C 186.4395448 185.9706115 185.13191239999998 182.8157958 182.758423 180.44230639999998 C 180.3856813 178.06954939999997 177.23085039999998 176.76191699999998 173.8747865 176.7626647 L 145.3597413 176.7633971 C 139.2483827 176.7626647 134.2773133 171.79159529999998 134.2765809 165.6802214 L 134.2765809 138.1772307 C 134.2773132 135.222168 135.4308929 132.4395752 137.5264893 130.3439789 z" stroke-linecap="round" />
</g>
		<g transform="matrix(1.4547922201123404 0 0 1.4547922201123404 -22.934376587451766 21.171260432283646)"  >
<radialGradient id="SVGID_97_124916" gradientUnits="userSpaceOnUse" gradientTransform="matrix(-0.7071068 0.7071068 -0.7071068 -0.7071068 171.5097198 108.9583435)"  cx="39.1517029" cy="-40.6523628" r="40.2289467" fx="39.1517029" fy="-40.6523628">
<stop offset="0%" style="stop-color:rgb(191,251,255);stop-opacity: 1"/>
<stop offset="12.81118%" style="stop-color:rgb(168,251,255);stop-opacity: 1"/>
<stop offset="30.872899999999998%" style="stop-color:rgb(140,252,255);stop-opacity: 1"/>
<stop offset="73.46865%" style="stop-color:rgb(51,199,255);stop-opacity: 1"/>
<stop offset="100%" style="stop-color:rgb(0,168,255);stop-opacity: 1"/>
</radialGradient>
<path style="stroke: none; stroke-width: 1; stroke-dasharray: none; stroke-linecap: butt; stroke-dashoffset: 0; stroke-linejoin: miter; stroke-miterlimit: 4; fill: url(#SVGID_97_124916); fill-rule: nonzero; opacity: 1;"  paint-order="stroke"  transform=" translate(-171.73529060000004, -164.55277255)" d="M 145.3599243 175.8020172 L 173.8747101 175.8020172 C 177.46168519999998 175.8020172 180.90173339999998 177.226944 183.4381104 179.7633057 L 183.4381104 179.763321 C 185.9745179 182.29971319999999 187.3994294 185.7398072 187.3994141 189.3268128 L 187.3993531 196.63372809999998 C 187.3993378 199.0730286 189.37677010000002 201.0504761 191.81608590000002 201.0504761 L 203.81623850000003 201.0504761 C 206.25553900000003 201.0504761 208.23300180000004 199.0730286 208.23300180000004 196.63372809999998 L 208.23300180000004 184.6335603 C 208.23300180000004 182.1942598 206.25553900000003 180.2168275 203.81623850000003 180.2168428 L 196.50932320000004 180.2168886 C 192.92233280000005 180.2169191 189.48222360000005 178.7919924 186.94583140000003 176.2556001 L 186.94583140000003 176.2556001 C 184.40945440000004 173.71922310000002 182.98452770000003 170.2791597 182.98452770000003 166.6921998 L 182.98452770000003 138.177414 C 182.98452770000003 132.5869904 178.45260630000004 128.055069 172.86218270000003 128.055069 L 145.35992440000004 128.055069 C 139.76951610000003 128.055069 135.23757940000004 132.5869904 135.23757940000004 138.177414 L 135.23757940000004 165.6796723 C 135.2375793 171.2700958 139.769516 175.8020172 145.3599243 175.8020172 z" stroke-linecap="round" />
</g>
		<g transform="matrix(1.4547922201123404 0 0 1.4547922201123404 -41.30009626402966 2.805551884866304)"  >
<linearGradient id="SVGID_98_124917" gradientUnits="userSpaceOnUse" gradientTransform="matrix(-1.346898e-10 1 -1 -1.346898e-10 156.5649261 28.4537506)"  x1="105.9653015" y1="14.9633512" x2="140.7347717" y2="-19.8061161">
<stop offset="0%" style="stop-color:rgb(0,168,255);stop-opacity: 1"/>
<stop offset="26.53136%" style="stop-color:rgb(51,199,255);stop-opacity: 1"/>
<stop offset="69.1271%" style="stop-color:rgb(140,252,255);stop-opacity: 1"/>
<stop offset="87.18879000000001%" style="stop-color:rgb(168,251,255);stop-opacity: 1"/>
<stop offset="100%" style="stop-color:rgb(191,251,255);stop-opacity: 1"/>
</linearGradient>
<path style="stroke: none; stroke-width: 1; stroke-dasharray: none; stroke-linecap: butt; stroke-dashoffset: 0; stroke-linejoin: miter; stroke-miterlimit: 4; fill: url(#SVGID_98_124917); fill-rule: nonzero; opacity: 1;"  paint-order="stroke"  transform=" translate(-159.11100004999997, -151.92848964999996)" d="M 179.1031952 140.4129639 L 179.1031952 162.5924988 C 179.1031952 167.7443085 174.92683409999998 171.92068479999998 169.77502439999998 171.92068479999998 L 147.59548949999999 171.92068479999998 C 142.91394039999997 171.92068479999998 139.1188049 168.1255493 139.1188049 163.44400019999998 L 139.1188049 140.41296379999997 C 139.1188049 135.73142999999996 142.91394039999997 131.93629449999997 147.59548949999999 131.93629449999997 L 170.6265106 131.93629449999997 C 175.3080597 131.9362946 179.1031952 135.7314301 179.1031952 140.4129639 z" stroke-linecap="round" />
</g>
		<g transform="matrix(1.4547922201123404 0 0 1.4547922201123404 15.007861308077054 59.113509456972906)"  >
<linearGradient id="SVGID_99_124918" gradientUnits="userSpaceOnUse" gradientTransform="matrix(-1.346898e-10 1 -1 -1.346898e-10 156.5649261 28.4537506)"  x1="155.1147156" y1="-34.186058" x2="169.328186" y2="-48.3995323">
<stop offset="0%" style="stop-color:rgb(191,251,255);stop-opacity: 1"/>
<stop offset="12.81118%" style="stop-color:rgb(168,251,255);stop-opacity: 1"/>
<stop offset="30.872899999999998%" style="stop-color:rgb(140,252,255);stop-opacity: 1"/>
<stop offset="73.46865%" style="stop-color:rgb(51,199,255);stop-opacity: 1"/>
<stop offset="100%" style="stop-color:rgb(0,168,255);stop-opacity: 1"/>
</linearGradient>
<path style="stroke: none; stroke-width: 1; stroke-dasharray: none; stroke-linecap: butt; stroke-dashoffset: 0; stroke-linejoin: miter; stroke-miterlimit: 4; fill: url(#SVGID_99_124918); fill-rule: nonzero; opacity: 1;"  paint-order="stroke"  transform=" translate(-197.81615450000004, -190.6336441)" d="M 205.9780426 185.9323883 L 205.9780426 195.3348999 C 205.9780426 197.2461548 204.4286652 198.7955322 202.51741030000002 198.7955322 L 193.11489870000003 198.7955322 C 191.20364380000004 198.7955322 189.65426640000004 197.2461548 189.65426640000004 195.3348999 L 189.65426640000004 186.216156 C 189.65426640000004 184.14817810000002 191.33068850000004 182.471756 193.39866640000005 182.471756 L 202.51741030000005 182.471756 C 204.4286652 182.471756 205.9780426 184.0211334 205.9780426 185.9323883 z" stroke-linecap="round" />
</g>
</g>
</g>
<g transform="matrix(1.9211538461538462 0 0 1.9211538461538462 638.0740028655481 717.010557072327)" id="text-logo"  >
<g style=""  paint-order="stroke"   >
		<g transform="matrix(1 0 0 1 0 0)" id="text-logo-path-0"  >
<linearGradient id="SVGID_124919" gradientUnits="userSpaceOnUse" gradientTransform="matrix(1 0 0 1 2.8500000000000227 -35.29)"  x1="267.6256542968751" y1="-7.787332656249987" x2="267.6256542968751" y2="47.21266734375001">
<stop offset="34%" style="stop-color:rgb(255,255,255);stop-opacity: 1"/>
<stop offset="84%" style="stop-color:rgb(116,238,255);stop-opacity: 1"/>
</linearGradient>
<path style="stroke: none; stroke-width: 0; stroke-dasharray: none; stroke-linecap: butt; stroke-dashoffset: 0; stroke-linejoin: miter; stroke-miterlimit: 4; fill: url(#SVGID_124919); fill-rule: nonzero; opacity: 1;"  paint-order="stroke"  transform=" translate(-300.67, 17.645)" d="M 2.85 -32.35 L 2.85 -29.4 L 10.67 -29.4 L 10.67 0 L 18.52 0 L 18.52 -29.4 L 26.37 -29.4 L 26.37 -35.29 L 14.59 -35.29 L 2.85 -35.29 Z M 30.65 -17.63 L 30.65 0 L 58.05 0 L 58.05 -4.55 L 58.05 -13.71 C 55.89 -15.86 54.6 -17.18 54.17 -17.63 C 56.32 -19.79 57.62 -21.1 58.05 -21.56 L 58.05 -31.37 C 57.57 -31.85 57.02 -32.4 56.4 -33.04 C 55.77 -33.66 55.3 -34.14 54.96 -34.5 C 54.63 -34.84 54.36 -35.1 54.17 -35.29 L 42.18 -35.29 L 30.65 -35.29 Z M 50.27 -11.77 L 50.27 -5.89 L 38.5 -5.89 L 38.5 -10.79 L 38.5 -15.67 L 42.42 -15.67 L 46.35 -15.67 C 48.38 -13.64 49.67 -12.32 50.27 -11.77 Z M 48.31 -21.56 L 38.5 -21.56 L 38.5 -25.48 L 38.5 -29.4 L 44.39 -29.4 L 50.27 -29.4 L 50.27 -23.52 Z M 63.86 -17.63 L 63.86 0 L 71.71 0 L 71.71 -13.71 L 83.48 -13.71 L 83.48 0 L 88.36 0 L 91.26 0 L 91.26 -5.89 L 91.26 -13.23 L 91.26 -35.29 L 83.48 -35.29 L 83.48 -19.6 L 71.71 -19.6 L 71.71 -35.29 L 67.79 -35.29 L 63.86 -35.29 Z M 118.68 -17.63 L 118.68 0 L 140.24 0 C 143.69 -3.47 145.62 -5.43 146.08 -5.89 L 146.08 -20.58 L 146.08 -29.4 C 146.1 -29.4 146.03 -29.48 145.89 -29.64 L 145.12 -30.41 C 144.76 -30.77 144.33 -31.15 143.88 -31.61 C 142.9 -32.61 141.7 -33.83 140.24 -35.29 L 129.43 -35.29 L 118.68 -35.29 Z M 136.34 -5.89 L 126.53 -5.89 L 126.53 -17.63 L 126.53 -29.4 L 131.39 -29.4 L 136.34 -29.4 L 138.3 -27.44 L 138.3 -7.85 Z M 151.46 -5.89 L 151.46 0 L 167.14 0 L 167.14 -5.89 L 163.21 -5.89 L 163.21 -29.4 L 167.14 -29.4 L 167.14 -35.29 L 151.46 -35.29 L 151.46 -29.4 L 155.39 -29.4 L 155.39 -5.89 Z M 172.62 -35.29 L 172.62 0 L 200.01 0 L 200.01 -17.63 L 191.45 -17.63 L 186.35 -17.63 C 186.35 -17.66 186.35 -16.68 186.35 -14.69 L 186.35 -11.77 L 188.55 -11.77 L 192.24 -11.77 L 192.24 -5.89 L 180.47 -5.89 L 180.47 -29.4 L 192.24 -29.4 L 192.24 -23.52 L 196.14 -23.52 L 200.01 -23.52 L 200.01 -29.4 L 200.01 -35.29 Z M 205.49 -5.89 L 205.49 0 L 221.17 0 L 221.17 -5.89 L 217.24 -5.89 L 217.24 -29.4 L 221.17 -29.4 L 221.17 -35.29 L 205.49 -35.29 L 205.49 -29.4 L 209.42 -29.4 L 209.42 -5.89 Z M 225.09 -32.35 L 225.09 -29.4 L 232.92 -29.4 L 232.92 0 L 240.76 0 L 240.76 -29.4 L 248.61 -29.4 L 248.61 -35.29 L 236.84 -35.29 L 225.09 -35.29 Z M 252.9 -17.63 L 252.9 0 L 260.75 0 L 260.75 -11.77 L 272.52 -11.77 L 272.52 0 L 280.29 0 L 280.29 -35.29 L 266.63 -35.29 L 252.9 -35.29 Z M 272.52 -17.63 L 260.75 -17.63 L 260.75 -23.52 L 260.75 -29.4 L 266.63 -29.4 L 272.52 -29.4 Z M 286.16 -13.28 L 286.16 0 L 286.4 0 L 286.44 0 L 286.49 0 L 286.54 0 L 286.59 0 L 286.64 0 L 286.68 0 L 286.73 0 L 286.78 0 L 286.83 0 L 286.87 0 L 286.92 0 L 286.97 0 L 287.02 0 L 287.07 0 L 287.11 0 L 287.16 0 L 287.21 0 L 287.26 0 L 287.31 0 L 287.35 0 L 287.4 0 L 287.45 0 L 287.5 0 L 287.54 0 L 287.59 0 L 287.64 0 L 287.69 0 L 287.74 0 L 287.78 0 L 287.83 0 L 287.88 0 L 287.93 0 L 287.98 0 L 288.02 0 L 288.07 0 L 288.12 0 L 288.17 0 L 288.21 0 L 288.26 0 L 288.31 0 L 288.36 0 L 288.41 0 L 288.45 0 L 288.5 0 L 288.55 0 L 288.6 0 L 288.65 0 L 288.69 0 L 288.74 0 L 288.79 0 L 288.84 0 L 288.88 0 L 288.93 0 L 288.98 0 L 289.05 0 L 289.1 0 L 289.15 0 L 289.2 0 L 289.24 0 L 289.29 0 L 289.34 0 L 289.39 0 L 289.43 0 L 289.48 0 L 289.53 0 L 289.58 0 L 289.63 0 L 289.67 0 L 289.72 0 L 289.77 0 L 289.82 0 L 289.87 0 L 289.91 0 L 289.96 0 L 290.01 0 L 290.06 0 L 290.1 0 L 290.15 0 L 290.2 0 L 290.25 0 L 290.3 0 L 290.34 0 L 290.39 0 L 290.44 0 L 290.49 0 L 295.97 0 L 305.78 0 L 305.78 -2.2 L 305.78 -5.89 L 294 -5.89 L 294 -35.29 L 290.08 -35.29 L 286.16 -35.29 Z M 332.75 -11.77 L 332.75 0 L 349.85 0 L 360.14 0 L 360.14 -5.89 L 360.14 -15.67 C 359.9 -15.77 353.39 -18.38 340.59 -23.52 L 340.59 -29.4 L 352.37 -29.4 L 352.37 -23.52 L 356.27 -23.52 L 360.14 -23.52 L 360.14 -29.64 L 360.14 -35.29 L 332.75 -35.29 L 332.75 -19.6 C 333.63 -19.24 340.16 -16.63 352.37 -11.77 L 352.37 -5.89 L 340.59 -5.89 L 340.59 -11.77 Z M 366.01 -35.29 L 366.01 0 L 393.4 0 L 393.4 -35.29 Z M 385.63 -5.89 L 373.85 -5.89 L 373.85 -29.4 L 385.63 -29.4 Z M 399.27 -13.28 L 399.27 0 L 399.51 0 L 399.55 0 L 399.6 0 L 399.65 0 L 399.7 0 L 399.74 0 L 399.79 0 L 399.84 0 L 399.89 0 L 399.94 0 L 399.98 0 L 400.03 0 L 400.08 0 L 400.13 0 L 400.17 0 L 400.22 0 L 400.27 0 L 400.32 0 L 400.37 0 L 400.41 0 L 400.46 0 L 400.51 0 L 400.56 0 L 400.61 0 L 400.65 0 L 400.7 0 L 400.75 0 L 400.8 0 L 400.84 0 L 400.89 0 L 400.94 0 L 400.99 0 L 401.04 0 L 401.08 0 L 401.13 0 L 401.18 0 L 401.23 0 L 401.28 0 L 401.32 0 L 401.37 0 L 401.42 0 L 401.47 0 L 401.51 0 L 401.56 0 L 401.61 0 L 401.66 0 L 401.71 0 L 401.75 0 L 401.8 0 L 401.85 0 L 401.9 0 L 401.95 0 L 401.99 0 L 402.04 0 L 402.09 0 L 402.16 0 L 402.21 0 L 402.26 0 L 402.3 0 L 402.35 0 L 402.4 0 L 402.45 0 L 402.5 0 L 402.54 0 L 402.59 0 L 402.64 0 L 402.69 0 L 402.74 0 L 402.78 0 L 402.83 0 L 402.88 0 L 402.93 0 L 402.97 0 L 403.02 0 L 403.07 0 L 403.12 0 L 403.17 0 L 403.21 0 L 403.26 0 L 403.31 0 L 403.36 0 L 403.4 0 L 403.45 0 L 403.5 0 L 403.55 0 L 403.6 0 L 409.08 0 L 418.88 0 L 418.88 -2.2 L 418.88 -5.89 L 407.11 -5.89 L 407.11 -35.29 L 403.19 -35.29 L 399.27 -35.29 Z M 424.3 -19.16 L 424.3 -4.07 C 426.09 -2.23 427.38 -0.89 428.22 0 L 434.58 0 L 447.81 0 C 449.11 -1.27 450.4 -2.54 451.69 -3.83 L 451.69 -35.29 L 443.91 -35.29 L 443.91 -20.53 L 443.91 -7.9 C 443.17 -7.15 442.53 -6.48 441.95 -5.89 L 438.51 -5.89 L 434.1 -5.89 L 432.14 -7.85 L 432.14 -35.29 L 428.22 -35.29 L 424.3 -35.29 Z M 456 -32.35 L 456 -29.4 L 463.82 -29.4 L 463.82 0 L 471.67 0 L 471.67 -29.4 L 479.52 -29.4 L 479.52 -35.29 L 467.75 -35.29 L 456 -35.29 Z M 483.42 -5.89 L 483.42 0 L 499.09 0 L 499.09 -5.89 L 495.17 -5.89 L 495.17 -29.4 L 499.09 -29.4 L 499.09 -35.29 L 483.42 -35.29 L 483.42 -29.4 L 487.35 -29.4 L 487.35 -5.89 Z M 504.57 -35.29 L 504.57 0 L 531.97 0 L 531.97 -35.29 Z M 524.19 -5.89 L 512.42 -5.89 L 512.42 -29.4 L 524.19 -29.4 Z M 537.83 -17.63 L 537.83 0 L 541.76 0 L 545.68 0 L 545.68 -23.52 C 549.82 -17.25 553.74 -11.36 557.45 -5.89 L 557.45 0 L 565.23 0 L 565.23 -35.29 L 557.45 -35.29 L 557.45 -17.63 L 545.68 -35.29 L 537.83 -35.29 Z M 571.09 -11.77 L 571.09 0 L 588.2 0 L 598.49 0 L 598.49 -5.89 L 598.49 -15.67 C 598.25 -15.77 591.74 -18.38 578.94 -23.52 L 578.94 -29.4 L 590.71 -29.4 L 590.71 -23.52 L 594.61 -23.52 L 598.49 -23.52 L 598.49 -29.64 L 598.49 -35.29 L 571.09 -35.29 L 571.09 -19.6 C 571.98 -19.24 578.51 -16.63 590.71 -11.77 L 590.71 -5.89 L 578.94 -5.89 L 578.94 -11.77 Z" stroke-linecap="round" />
</g>
</g>
</g>
<g transform="matrix(1.9211538461538462 0 0 1.9211538461538462 641.9673599681624 789.7341738732362)" id="tagline-1c5f2eb6-3935-40fb-810a-770d6c355340-logo"  >
<g style=""  paint-order="stroke"   >
		<g transform="matrix(1 0 0 1 0 0)" id="tagline-1c5f2eb6-3935-40fb-810a-770d6c355340-logo-path-0"  >
<path style="stroke: none; stroke-width: 0; stroke-dasharray: none; stroke-linecap: butt; stroke-dashoffset: 0; stroke-linejoin: miter; stroke-miterlimit: 4; fill: rgb(42,193,255); fill-rule: nonzero; opacity: 0;"  paint-order="stroke"  transform=" translate(-295.02, 11.205)" d="M 6.08 0 L 2.88 0 L 2.88 -22.41 L 15.14 -22.41 Q 20.58 -22.41 20.58 -16.95 L 20.58 -16.95 L 20.58 -13.77 Q 20.58 -8.31 15.14 -8.31 L 15.14 -8.31 L 6.08 -8.31 L 6.08 0 Z M 6.08 -19.2 L 6.08 -11.52 L 14.97 -11.52 Q 16.25 -11.52 16.81 -12.08 Q 17.38 -12.64 17.38 -13.92 L 17.38 -13.92 L 17.38 -16.8 Q 17.38 -18.08 16.81 -18.64 Q 16.25 -19.2 14.97 -19.2 L 14.97 -19.2 L 6.08 -19.2 Z M 47.45 0 L 44.25 0 L 44.25 -22.41 L 56.51 -22.41 Q 61.95 -22.41 61.95 -16.95 L 61.95 -16.95 L 61.95 -14.41 Q 61.95 -9.72 57.95 -9.06 L 57.95 -9.06 L 62.17 0 L 58.62 0 L 54.47 -8.95 L 47.45 -8.95 L 47.45 0 Z M 47.45 -19.2 L 47.45 -12.16 L 56.34 -12.16 Q 57.62 -12.16 58.18 -12.72 Q 58.75 -13.28 58.75 -14.56 L 58.75 -14.56 L 58.75 -16.8 Q 58.75 -18.08 58.18 -18.64 Q 57.62 -19.2 56.34 -19.2 L 56.34 -19.2 L 47.45 -19.2 Z M 86.49 -3.2 L 86.49 -3.2 L 86.49 -19.2 Q 86.49 -19.86 86.74 -20.45 Q 86.99 -21.03 87.43 -21.46 Q 87.87 -21.89 88.45 -22.15 Q 89.04 -22.41 89.7 -22.41 L 89.7 -22.41 L 102.49 -22.41 Q 103.15 -22.41 103.74 -22.15 Q 104.32 -21.89 104.76 -21.46 Q 105.2 -21.03 105.45 -20.45 Q 105.7 -19.86 105.7 -19.2 L 105.7 -19.2 L 105.7 -3.2 Q 105.7 -2.55 105.45 -1.96 Q 105.2 -1.38 104.76 -0.94 Q 104.32 -0.5 103.74 -0.25 Q 103.15 0 102.49 0 L 102.49 0 L 89.7 0 Q 89.04 0 88.45 -0.25 Q 87.87 -0.5 87.43 -0.94 Q 86.99 -1.38 86.74 -1.96 Q 86.49 -2.55 86.49 -3.2 Z M 89.7 -19.2 L 89.7 -3.2 L 102.49 -3.2 L 102.49 -19.2 L 89.7 -19.2 Z M 133.85 0 L 130.65 0 L 130.65 -22.41 L 142.91 -22.41 Q 148.35 -22.41 148.35 -16.95 L 148.35 -16.95 L 148.35 -13.77 Q 148.35 -8.31 142.91 -8.31 L 142.91 -8.31 L 133.85 -8.31 L 133.85 0 Z M 133.85 -19.2 L 133.85 -11.52 L 142.74 -11.52 Q 144.02 -11.52 144.58 -12.08 Q 145.15 -12.64 145.15 -13.92 L 145.15 -13.92 L 145.15 -16.8 Q 145.15 -18.08 144.58 -18.64 Q 144.02 -19.2 142.74 -19.2 L 142.74 -19.2 L 133.85 -19.2 Z M 172.02 -3.2 L 172.02 -3.2 L 172.02 -19.2 Q 172.02 -19.86 172.27 -20.45 Q 172.52 -21.03 172.96 -21.46 Q 173.39 -21.89 173.98 -22.15 Q 174.57 -22.41 175.22 -22.41 L 175.22 -22.41 L 188.02 -22.41 Q 188.68 -22.41 189.26 -22.15 Q 189.85 -21.89 190.28 -21.46 Q 190.72 -21.03 190.97 -20.45 Q 191.22 -19.86 191.22 -19.2 L 191.22 -19.2 L 191.22 -3.2 Q 191.22 -2.55 190.97 -1.96 Q 190.72 -1.38 190.28 -0.94 Q 189.85 -0.5 189.26 -0.25 Q 188.68 0 188.02 0 L 188.02 0 L 175.22 0 Q 174.57 0 173.98 -0.25 Q 173.39 -0.5 172.96 -0.94 Q 172.52 -1.38 172.27 -1.96 Q 172.02 -2.55 172.02 -3.2 Z M 175.22 -19.2 L 175.22 -3.2 L 188.02 -3.2 L 188.02 -19.2 L 175.22 -19.2 Z M 215.86 -3.2 L 215.86 -3.2 L 215.86 -6.08 L 219.06 -6.08 L 219.06 -3.2 L 230.25 -3.2 L 230.25 -9.59 L 219.38 -9.59 Q 218.72 -9.59 218.13 -9.85 Q 217.55 -10.11 217.11 -10.54 Q 216.67 -10.97 216.42 -11.55 Q 216.17 -12.14 216.17 -12.8 L 216.17 -12.8 L 216.17 -19.2 Q 216.17 -19.86 216.42 -20.45 Q 216.67 -21.03 217.11 -21.46 Q 217.55 -21.89 218.13 -22.15 Q 218.72 -22.41 219.38 -22.41 L 219.38 -22.41 L 230.25 -22.41 Q 230.91 -22.41 231.49 -22.15 Q 232.08 -21.89 232.52 -21.46 Q 232.95 -21.03 233.2 -20.45 Q 233.45 -19.86 233.45 -19.2 L 233.45 -19.2 L 233.45 -16.31 L 230.25 -16.31 L 230.25 -19.2 L 219.38 -19.2 L 219.38 -12.8 L 230.25 -12.8 Q 230.91 -12.8 231.49 -12.55 Q 232.08 -12.3 232.52 -11.86 Q 232.95 -11.42 233.2 -10.84 Q 233.45 -10.25 233.45 -9.59 L 233.45 -9.59 L 233.45 -3.2 Q 233.45 -2.55 233.2 -1.96 Q 232.95 -1.38 232.52 -0.94 Q 232.08 -0.5 231.49 -0.25 Q 230.91 0 230.25 0 L 230.25 0 L 219.06 0 Q 218.41 0 217.82 -0.25 Q 217.23 -0.5 216.8 -0.94 Q 216.36 -1.38 216.11 -1.96 Q 215.86 -2.55 215.86 -3.2 Z M 259.7 0 L 256.5 0 L 265.14 -22.41 L 268.34 -22.41 L 276.98 0 L 273.78 0 L 271.79 -5.16 L 261.68 -5.16 L 259.7 0 Z M 266.75 -18.23 L 262.9 -8.36 L 270.56 -8.36 L 266.75 -18.23 Z M 314.74 0 L 300.02 0 L 300.02 -22.41 L 303.23 -22.41 L 303.23 -3.2 L 314.74 -3.2 L 314.74 0 Z M 369.78 0 L 366.58 0 L 366.58 -22.41 L 378.85 -22.41 Q 384.28 -22.41 384.28 -16.95 L 384.28 -16.95 L 384.28 -13.77 Q 384.28 -8.31 378.85 -8.31 L 378.85 -8.31 L 369.78 -8.31 L 369.78 0 Z M 369.78 -19.2 L 369.78 -11.52 L 378.67 -11.52 Q 379.96 -11.52 380.52 -12.08 Q 381.08 -12.64 381.08 -13.92 L 381.08 -13.92 L 381.08 -16.8 Q 381.08 -18.08 380.52 -18.64 Q 379.96 -19.2 378.67 -19.2 L 378.67 -19.2 L 369.78 -19.2 Z M 407.95 -3.2 L 407.95 -3.2 L 407.95 -19.2 Q 407.95 -19.86 408.2 -20.45 Q 408.45 -21.03 408.89 -21.46 Q 409.33 -21.89 409.91 -22.15 Q 410.5 -22.41 411.16 -22.41 L 411.16 -22.41 L 423.95 -22.41 Q 424.61 -22.41 425.2 -22.15 Q 425.78 -21.89 426.22 -21.46 Q 426.66 -21.03 426.91 -20.45 Q 427.16 -19.86 427.16 -19.2 L 427.16 -19.2 L 427.16 -3.2 Q 427.16 -2.55 426.91 -1.96 Q 426.66 -1.38 426.22 -0.94 Q 425.78 -0.5 425.2 -0.25 Q 424.61 0 423.95 0 L 423.95 0 L 411.16 0 Q 410.5 0 409.91 -0.25 Q 409.33 -0.5 408.89 -0.94 Q 408.45 -1.38 408.2 -1.96 Q 407.95 -2.55 407.95 -3.2 Z M 411.16 -19.2 L 411.16 -3.2 L 423.95 -3.2 L 423.95 -19.2 L 411.16 -19.2 Z M 455.31 0 L 452.11 0 L 452.11 -22.41 L 464.37 -22.41 Q 469.81 -22.41 469.81 -16.95 L 469.81 -16.95 L 469.81 -14.41 Q 469.81 -9.72 465.81 -9.06 L 465.81 -9.06 L 470.03 0 L 466.48 0 L 462.32 -8.95 L 455.31 -8.95 L 455.31 0 Z M 455.31 -19.2 L 455.31 -12.16 L 464.2 -12.16 Q 465.48 -12.16 466.04 -12.72 Q 466.61 -13.28 466.61 -14.56 L 466.61 -14.56 L 466.61 -16.8 Q 466.61 -18.08 466.04 -18.64 Q 465.48 -19.2 464.2 -19.2 L 464.2 -19.2 L 455.31 -19.2 Z M 499.79 -19.2 L 492.43 -19.2 L 492.43 -22.41 L 510.35 -22.41 L 510.35 -19.2 L 502.99 -19.2 L 502.99 0 L 499.79 0 L 499.79 -19.2 Z M 532.12 0 L 528.91 0 L 537.55 -22.41 L 540.76 -22.41 L 549.4 0 L 546.19 0 L 544.21 -5.16 L 534.1 -5.16 L 532.12 0 Z M 539.16 -18.23 L 535.32 -8.36 L 542.97 -8.36 L 539.16 -18.23 Z M 587.16 0 L 572.44 0 L 572.44 -22.41 L 575.64 -22.41 L 575.64 -3.2 L 587.16 -3.2 L 587.16 0 Z" stroke-linecap="round" />
</g>
</g>
</g>
</svg>