<?xml version="1.0" encoding="UTF-8" standalone="no" ?>
<!DOCTYPE svg PUBLIC "-//W3C//DTD SVG 1.1//EN" "http://www.w3.org/Graphics/SVG/1.1/DTD/svg11.dtd">
<svg xmlns="http://www.w3.org/2000/svg" xmlns:xlink="http://www.w3.org/1999/xlink" version="1.1" width="1280" height="1024" viewBox="0 0 1280 1024" xml:space="preserve">
<desc>Created with Fabric.js 5.3.0</desc>
<defs>
</defs>
<g transform="matrix(1 0 0 1 640 512)" id="background-logo"  >
<rect style="stroke: none; stroke-width: 0; stroke-dasharray: none; stroke-linecap: butt; stroke-dashoffset: 0; stroke-linejoin: miter; stroke-miterlimit: 4; fill: rgb(255,255,255); fill-opacity: 0; fill-rule: nonzero; opacity: 1;"  paint-order="stroke"  x="-640" y="-512" rx="0" ry="0" width="1280" height="1024" />
</g>
<g transform="matrix(2.7326966755347497 0 0 2.7326966755347493 640.1011133603238 414.6701392605881)" id="logo-logo"  >
<g style=""  paint-order="stroke"   >
		<g transform="matrix(1.4547922201123404 0 0 1.4547922201123404 22.934309957968253 -21.17133789996936)"  >
<radialGradient id="SVGID_92_94093" gradientUnits="userSpaceOnUse" gradientTransform="matrix(0.7071068 -0.7071068 0.7071068 0.7071068 -37.5097275 71.0416565)"  cx="124.7116241" cy="214.6345673" r="57.6688728" fx="124.7116241" fy="214.6345673">
<stop offset="0%" style="stop-color:rgb(0,168,255);stop-opacity: 1"/>
<stop offset="26.53136%" style="stop-color:rgb(51,199,255);stop-opacity: 1"/>
<stop offset="69.1271%" style="stop-color:rgb(140,252,255);stop-opacity: 1"/>
<stop offset="87.18879000000001%" style="stop-color:rgb(168,251,255);stop-opacity: 1"/>
<stop offset="100%" style="stop-color:rgb(191,251,255);stop-opacity: 1"/>
</radialGradient>
<path style="stroke: none; stroke-width: 1; stroke-dasharray: none; stroke-linecap: butt; stroke-dashoffset: 0; stroke-linejoin: miter; stroke-miterlimit: 4; fill: url(#SVGID_92_94093); fill-rule: nonzero; opacity: 1;"  paint-order="stroke"  transform=" translate(-203.2646636, -135.44717400000002)" d="M 237.4735107 169.6560211 C 235.37791439999998 171.75161740000001 232.59532159999998 172.9051971 229.6402587 172.9059295 L 202.1372527 172.9059295 C 196.02589410000002 172.9051971 191.0548247 167.934143 191.0540923 161.82276910000002 L 191.0548247 133.3077239 C 191.05557240000002 129.95166010000003 189.7479399 126.79683680000001 187.37518300000002 124.42408740000002 C 185.0016936 122.05059800000002 181.84686270000003 120.74296560000002 178.49081410000002 120.74370560000001 L 171.18385300000003 120.74443800000002 C 168.21845990000003 120.74370560000001 165.80664050000001 118.33188610000002 165.80590810000004 115.36649310000001 L 165.80590810000004 103.36636340000001 C 165.80664050000004 101.9931334 166.39263910000003 100.61990340000001 167.41502370000003 99.59753410000002 C 168.43739310000004 98.57515710000001 169.81062310000004 97.98915860000002 171.18385300000003 97.98841850000002 L 183.18397510000003 97.98841850000002 C 186.14936820000003 97.98915860000002 188.56118760000004 100.40097800000002 188.56192000000001 103.36636340000003 L 188.5611876 110.67332450000002 C 188.5604552 114.02938070000002 189.86808760000002 117.18420400000002 192.241577 119.55769340000002 C 194.6143187 121.93045040000001 197.76914960000002 123.23808280000002 201.1252135 123.23734280000002 L 229.6402587 123.23660270000002 C 235.7516173 123.23734280000002 240.7226867 128.20840450000003 240.7234191 134.31977840000002 L 240.7234191 161.82276910000002 C 240.7226868 164.777832 239.5691071 167.5604248 237.4735107 169.6560211 z" stroke-linecap="round" />
</g>
		<g transform="matrix(1.4547922201123404 0 0 1.4547922201123404 22.93437658745188 -21.171265596796047)"  >
<radialGradient id="SVGID_93_94094" gradientUnits="userSpaceOnUse" gradientTransform="matrix(0.7071068 -0.7071068 0.7071068 0.7071068 -37.5097275 71.0416565)"  cx="124.7116241" cy="214.6131897" r="40.2289467" fx="124.7116241" fy="214.6131897">
<stop offset="0%" style="stop-color:rgb(191,251,255);stop-opacity: 1"/>
<stop offset="12.81118%" style="stop-color:rgb(168,251,255);stop-opacity: 1"/>
<stop offset="30.872899999999998%" style="stop-color:rgb(140,252,255);stop-opacity: 1"/>
<stop offset="73.46865%" style="stop-color:rgb(51,199,255);stop-opacity: 1"/>
<stop offset="100%" style="stop-color:rgb(0,168,255);stop-opacity: 1"/>
</radialGradient>
<path style="stroke: none; stroke-width: 1; stroke-dasharray: none; stroke-linecap: butt; stroke-dashoffset: 0; stroke-linejoin: miter; stroke-miterlimit: 4; fill: url(#SVGID_93_94094); fill-rule: nonzero; opacity: 1;"  paint-order="stroke"  transform=" translate(-203.26470939999996, -135.4472237)" d="M 229.6400757 124.1979828 L 201.1252899 124.1979828 C 197.53831480000002 124.1979828 194.09826660000002 122.77306370000001 191.5618896 120.2366867 L 191.5618896 120.2366791 C 189.0254821 117.70028690000001 187.6005706 114.2601853 187.6005859 110.67318730000001 L 187.6006469 103.36627200000001 C 187.6006622 100.92697150000001 185.62322989999998 98.94951630000001 183.18391409999998 98.94951630000001 L 171.18376149999997 98.94951630000001 C 168.74446099999997 98.94951630000001 166.76699819999996 100.92697140000001 166.76699819999996 103.36627200000001 L 166.76699819999996 115.3664322 C 166.76699819999996 117.8057404 168.74446099999997 119.7831802 171.18376149999997 119.78315740000001 L 178.49067679999996 119.78310400000001 C 182.07766719999995 119.7830811 185.51777639999995 121.20800020000001 188.05416859999997 123.74440010000001 L 188.05416859999997 123.74440770000001 C 190.59054559999996 126.28077700000001 192.01547229999997 129.7208405 192.01547229999997 133.3078003 L 192.01547229999997 161.8225861 C 192.01547229999997 167.4130097 196.54739369999996 171.9449311 202.13781729999997 171.9449311 L 229.64007559999996 171.9449311 C 235.23048389999997 171.9449311 239.76242059999996 167.4130097 239.76242059999996 161.8225861 L 239.76242059999996 134.3203278 C 239.7624207 128.7299042 235.230484 124.1979828 229.6400757 124.1979828 z" stroke-linecap="round" />
</g>
		<g transform="matrix(1.4547922201123404 0 0 1.4547922201123404 41.30009626402966 -2.8055515939079214)"  >
<linearGradient id="SVGID_94_94095" gradientUnits="userSpaceOnUse" gradientTransform="matrix(4.489659e-11 -1 1 4.489659e-11 -22.5649185 151.5462494)"  x1="-14.0346966" y1="255.9633484" x2="20.7347717" y2="221.1938782">
<stop offset="0%" style="stop-color:rgb(0,168,255);stop-opacity: 1"/>
<stop offset="26.53136%" style="stop-color:rgb(51,199,255);stop-opacity: 1"/>
<stop offset="69.1271%" style="stop-color:rgb(140,252,255);stop-opacity: 1"/>
<stop offset="87.18879000000001%" style="stop-color:rgb(168,251,255);stop-opacity: 1"/>
<stop offset="100%" style="stop-color:rgb(191,251,255);stop-opacity: 1"/>
</linearGradient>
<path style="stroke: none; stroke-width: 1; stroke-dasharray: none; stroke-linecap: butt; stroke-dashoffset: 0; stroke-linejoin: miter; stroke-miterlimit: 4; fill: url(#SVGID_94_94095); fill-rule: nonzero; opacity: 1;"  paint-order="stroke"  transform=" translate(-215.88899995000003, -148.07151035000004)" d="M 195.8968048 159.5870361 L 195.8968048 137.4075012 C 195.8968048 132.2556915 200.07316590000002 128.07931520000002 205.22497560000002 128.07931520000002 L 227.40451050000001 128.07931520000002 C 232.08605960000003 128.07931520000002 235.8811951 131.8744507 235.8811951 136.55599980000002 L 235.8811951 159.58703620000003 C 235.8811951 164.26857000000004 232.08605960000003 168.06370550000003 227.40451050000001 168.06370550000003 L 204.3734894 168.06370550000003 C 199.6919403 168.0637054 195.8968048 164.2685699 195.8968048 159.5870361 z" stroke-linecap="round" />
</g>
		<g transform="matrix(1.4547922201123404 0 0 1.4547922201123404 -15.00786130807694 -59.113509166014495)"  >
<linearGradient id="SVGID_95_94096" gradientUnits="userSpaceOnUse" gradientTransform="matrix(4.489659e-11 -1 1 4.489659e-11 -22.5649185 151.5462494)"  x1="35.1147156" y1="206.8139343" x2="49.3281898" y2="192.6004639">
<stop offset="0%" style="stop-color:rgb(191,251,255);stop-opacity: 1"/>
<stop offset="12.81118%" style="stop-color:rgb(168,251,255);stop-opacity: 1"/>
<stop offset="30.872899999999998%" style="stop-color:rgb(140,252,255);stop-opacity: 1"/>
<stop offset="73.46865%" style="stop-color:rgb(51,199,255);stop-opacity: 1"/>
<stop offset="100%" style="stop-color:rgb(0,168,255);stop-opacity: 1"/>
</linearGradient>
<path style="stroke: none; stroke-width: 1; stroke-dasharray: none; stroke-linecap: butt; stroke-dashoffset: 0; stroke-linejoin: miter; stroke-miterlimit: 4; fill: url(#SVGID_95_94096); fill-rule: nonzero; opacity: 1;"  paint-order="stroke"  transform=" translate(-177.18384549999996, -109.3663559)" d="M 169.0219574 114.0676117 L 169.0219574 104.6651001 C 169.0219574 102.7538452 170.5713348 101.2044678 172.48258969999998 101.2044678 L 181.88510129999997 101.2044678 C 183.79635619999996 101.2044678 185.34573359999996 102.7538452 185.34573359999996 104.6651001 L 185.34573359999996 113.783844 C 185.34573359999996 115.8518219 183.66931149999996 117.528244 181.60133359999995 117.528244 L 172.48258969999995 117.528244 C 170.5713348 117.528244 169.0219574 115.9788666 169.0219574 114.0676117 z" stroke-linecap="round" />
</g>
		<g transform="matrix(1.4547922201123404 0 0 1.4547922201123404 -22.934309957968196 21.171332444498518)"  >
<radialGradient id="SVGID_96_94097" gradientUnits="userSpaceOnUse" gradientTransform="matrix(-0.7071068 0.7071068 -0.7071068 -0.7071068 171.5097198 108.9583435)"  cx="39.1517029" cy="-40.6309853" r="57.6688728" fx="39.1517029" fy="-40.6309853">
<stop offset="0%" style="stop-color:rgb(0,168,255);stop-opacity: 1"/>
<stop offset="26.53136%" style="stop-color:rgb(51,199,255);stop-opacity: 1"/>
<stop offset="69.1271%" style="stop-color:rgb(140,252,255);stop-opacity: 1"/>
<stop offset="87.18879000000001%" style="stop-color:rgb(168,251,255);stop-opacity: 1"/>
<stop offset="100%" style="stop-color:rgb(191,251,255);stop-opacity: 1"/>
</radialGradient>
<path style="stroke: none; stroke-width: 1; stroke-dasharray: none; stroke-linecap: butt; stroke-dashoffset: 0; stroke-linejoin: miter; stroke-miterlimit: 4; fill: url(#SVGID_96_94097); fill-rule: nonzero; opacity: 1;"  paint-order="stroke"  transform=" translate(-171.7353364, -164.55282204999997)" d="M 137.5264893 130.3439789 C 139.62208560000002 128.24838259999999 142.40467840000002 127.09480289999999 145.3597413 127.09406279999999 L 172.8627473 127.09406279999999 C 178.97410589999998 127.09480289999999 183.9451753 132.0658569 183.9459077 138.1772308 L 183.9451753 166.692276 C 183.94442759999998 170.04833979999998 185.2520601 173.20315549999998 187.62481699999998 175.5759125 C 189.9983064 177.9494019 193.15313729999997 179.2570343 196.50918589999998 179.25630189999998 L 203.81614699999997 179.25555419999998 C 206.78154009999997 179.25630189999998 209.19335949999999 181.66812129999997 209.19409189999996 184.63349909999997 L 209.19409189999996 196.63363639999997 C 209.19335949999996 198.00686639999998 208.60736089999997 199.38009639999999 207.58497629999997 200.40246569999996 C 206.56260689999996 201.42483509999997 205.18937689999996 202.01083359999996 203.81614699999997 202.01158129999996 L 191.81602489999997 202.01158129999996 C 188.85063179999997 202.01083359999996 186.43881239999996 199.59901419999997 186.43807999999999 196.63363639999997 L 186.4388124 189.32667529999998 C 186.4395448 185.9706115 185.13191239999998 182.8157958 182.758423 180.44230639999998 C 180.3856813 178.06954939999997 177.23085039999998 176.76191699999998 173.8747865 176.7626647 L 145.3597413 176.7633971 C 139.2483827 176.7626647 134.2773133 171.79159529999998 134.2765809 165.6802214 L 134.2765809 138.1772307 C 134.2773132 135.222168 135.4308929 132.4395752 137.5264893 130.3439789 z" stroke-linecap="round" />
</g>
		<g transform="matrix(1.4547922201123404 0 0 1.4547922201123404 -22.934376587451766 21.171260432283646)"  >
<radialGradient id="SVGID_97_94098" gradientUnits="userSpaceOnUse" gradientTransform="matrix(-0.7071068 0.7071068 -0.7071068 -0.7071068 171.5097198 108.9583435)"  cx="39.1517029" cy="-40.6523628" r="40.2289467" fx="39.1517029" fy="-40.6523628">
<stop offset="0%" style="stop-color:rgb(191,251,255);stop-opacity: 1"/>
<stop offset="12.81118%" style="stop-color:rgb(168,251,255);stop-opacity: 1"/>
<stop offset="30.872899999999998%" style="stop-color:rgb(140,252,255);stop-opacity: 1"/>
<stop offset="73.46865%" style="stop-color:rgb(51,199,255);stop-opacity: 1"/>
<stop offset="100%" style="stop-color:rgb(0,168,255);stop-opacity: 1"/>
</radialGradient>
<path style="stroke: none; stroke-width: 1; stroke-dasharray: none; stroke-linecap: butt; stroke-dashoffset: 0; stroke-linejoin: miter; stroke-miterlimit: 4; fill: url(#SVGID_97_94098); fill-rule: nonzero; opacity: 1;"  paint-order="stroke"  transform=" translate(-171.73529060000004, -164.55277255)" d="M 145.3599243 175.8020172 L 173.8747101 175.8020172 C 177.46168519999998 175.8020172 180.90173339999998 177.226944 183.4381104 179.7633057 L 183.4381104 179.763321 C 185.9745179 182.29971319999999 187.3994294 185.7398072 187.3994141 189.3268128 L 187.3993531 196.63372809999998 C 187.3993378 199.0730286 189.37677010000002 201.0504761 191.81608590000002 201.0504761 L 203.81623850000003 201.0504761 C 206.25553900000003 201.0504761 208.23300180000004 199.0730286 208.23300180000004 196.63372809999998 L 208.23300180000004 184.6335603 C 208.23300180000004 182.1942598 206.25553900000003 180.2168275 203.81623850000003 180.2168428 L 196.50932320000004 180.2168886 C 192.92233280000005 180.2169191 189.48222360000005 178.7919924 186.94583140000003 176.2556001 L 186.94583140000003 176.2556001 C 184.40945440000004 173.71922310000002 182.98452770000003 170.2791597 182.98452770000003 166.6921998 L 182.98452770000003 138.177414 C 182.98452770000003 132.5869904 178.45260630000004 128.055069 172.86218270000003 128.055069 L 145.35992440000004 128.055069 C 139.76951610000003 128.055069 135.23757940000004 132.5869904 135.23757940000004 138.177414 L 135.23757940000004 165.6796723 C 135.2375793 171.2700958 139.769516 175.8020172 145.3599243 175.8020172 z" stroke-linecap="round" />
</g>
		<g transform="matrix(1.4547922201123404 0 0 1.4547922201123404 -41.30009626402966 2.805551884866304)"  >
<linearGradient id="SVGID_98_94099" gradientUnits="userSpaceOnUse" gradientTransform="matrix(-1.346898e-10 1 -1 -1.346898e-10 156.5649261 28.4537506)"  x1="105.9653015" y1="14.9633512" x2="140.7347717" y2="-19.8061161">
<stop offset="0%" style="stop-color:rgb(0,168,255);stop-opacity: 1"/>
<stop offset="26.53136%" style="stop-color:rgb(51,199,255);stop-opacity: 1"/>
<stop offset="69.1271%" style="stop-color:rgb(140,252,255);stop-opacity: 1"/>
<stop offset="87.18879000000001%" style="stop-color:rgb(168,251,255);stop-opacity: 1"/>
<stop offset="100%" style="stop-color:rgb(191,251,255);stop-opacity: 1"/>
</linearGradient>
<path style="stroke: none; stroke-width: 1; stroke-dasharray: none; stroke-linecap: butt; stroke-dashoffset: 0; stroke-linejoin: miter; stroke-miterlimit: 4; fill: url(#SVGID_98_94099); fill-rule: nonzero; opacity: 1;"  paint-order="stroke"  transform=" translate(-159.11100004999997, -151.92848964999996)" d="M 179.1031952 140.4129639 L 179.1031952 162.5924988 C 179.1031952 167.7443085 174.92683409999998 171.92068479999998 169.77502439999998 171.92068479999998 L 147.59548949999999 171.92068479999998 C 142.91394039999997 171.92068479999998 139.1188049 168.1255493 139.1188049 163.44400019999998 L 139.1188049 140.41296379999997 C 139.1188049 135.73142999999996 142.91394039999997 131.93629449999997 147.59548949999999 131.93629449999997 L 170.6265106 131.93629449999997 C 175.3080597 131.9362946 179.1031952 135.7314301 179.1031952 140.4129639 z" stroke-linecap="round" />
</g>
		<g transform="matrix(1.4547922201123404 0 0 1.4547922201123404 15.007861308077054 59.113509456972906)"  >
<linearGradient id="SVGID_99_94100" gradientUnits="userSpaceOnUse" gradientTransform="matrix(-1.346898e-10 1 -1 -1.346898e-10 156.5649261 28.4537506)"  x1="155.1147156" y1="-34.186058" x2="169.328186" y2="-48.3995323">
<stop offset="0%" style="stop-color:rgb(191,251,255);stop-opacity: 1"/>
<stop offset="12.81118%" style="stop-color:rgb(168,251,255);stop-opacity: 1"/>
<stop offset="30.872899999999998%" style="stop-color:rgb(140,252,255);stop-opacity: 1"/>
<stop offset="73.46865%" style="stop-color:rgb(51,199,255);stop-opacity: 1"/>
<stop offset="100%" style="stop-color:rgb(0,168,255);stop-opacity: 1"/>
</linearGradient>
<path style="stroke: none; stroke-width: 1; stroke-dasharray: none; stroke-linecap: butt; stroke-dashoffset: 0; stroke-linejoin: miter; stroke-miterlimit: 4; fill: url(#SVGID_99_94100); fill-rule: nonzero; opacity: 1;"  paint-order="stroke"  transform=" translate(-197.81615450000004, -190.6336441)" d="M 205.9780426 185.9323883 L 205.9780426 195.3348999 C 205.9780426 197.2461548 204.4286652 198.7955322 202.51741030000002 198.7955322 L 193.11489870000003 198.7955322 C 191.20364380000004 198.7955322 189.65426640000004 197.2461548 189.65426640000004 195.3348999 L 189.65426640000004 186.216156 C 189.65426640000004 184.14817810000002 191.33068850000004 182.471756 193.39866640000005 182.471756 L 202.51741030000005 182.471756 C 204.4286652 182.471756 205.9780426 184.0211334 205.9780426 185.9323883 z" stroke-linecap="round" />
</g>
</g>
</g>
<g transform="matrix(1.9211538461538462 0 0 1.9211538461538462 645.8250923039365 691.305092889056)" id="text-logo"  >
<g style=""  paint-order="stroke"   >
		<g transform="matrix(1 0 0 1 0 0)" id="text-logo-path-0"  >
<linearGradient id="SVGID_94101" gradientUnits="userSpaceOnUse" gradientTransform="matrix(1 0 0 1 2.0299999999999727 -25.21)"  x1="268.36147460937497" y1="-5.56238046874995" x2="268.36147460937497" y2="34.43761953125005">
<stop offset="34%" style="stop-color:rgb(255,255,255);stop-opacity: 1"/>
<stop offset="84%" style="stop-color:rgb(116,238,255);stop-opacity: 1"/>
</linearGradient>
<path style="stroke: none; stroke-width: 0; stroke-dasharray: none; stroke-linecap: butt; stroke-dashoffset: 0; stroke-linejoin: miter; stroke-miterlimit: 4; fill: url(#SVGID_94101); fill-rule: nonzero; opacity: 1;"  paint-order="stroke"  transform=" translate(-288.26, 12.605)" d="M 2.03 -23.11 L 2.03 -21 L 7.62 -21 L 7.62 0 L 13.23 0 L 13.23 -21 L 18.83 -21 L 18.83 -25.21 L 10.42 -25.21 L 2.03 -25.21 Z M 29.24 -12.6 L 29.24 0 L 48.81 0 L 48.81 -3.25 L 48.81 -9.79 C 47.27 -11.33 46.35 -12.27 46.04 -12.6 C 47.58 -14.13 48.5 -15.07 48.81 -15.4 L 48.81 -22.4 C 48.47 -22.75 48.08 -23.14 47.63 -23.6 C 47.19 -24.05 46.85 -24.39 46.61 -24.64 C 46.37 -24.88 46.18 -25.07 46.04 -25.21 L 37.48 -25.21 L 29.24 -25.21 Z M 43.26 -8.41 L 43.26 -4.2 L 34.85 -4.2 L 34.85 -7.71 L 34.85 -11.19 L 37.65 -11.19 L 40.46 -11.19 C 41.91 -9.74 42.83 -8.8 43.26 -8.41 Z M 41.86 -15.4 L 34.85 -15.4 L 34.85 -18.2 L 34.85 -21 L 39.05 -21 L 43.26 -21 L 43.26 -16.8 Z M 60.32 -12.6 L 60.32 0 L 65.92 0 L 65.92 -9.79 L 74.33 -9.79 L 74.33 0 L 77.82 0 L 79.88 0 L 79.88 -4.2 L 79.88 -9.45 L 79.88 -25.21 L 74.33 -25.21 L 74.33 -14 L 65.92 -14 L 65.92 -25.21 L 63.12 -25.21 L 60.32 -25.21 Z M 114.17 -12.6 L 114.17 0 L 129.57 0 C 132.03 -2.48 133.42 -3.88 133.74 -4.2 L 133.74 -14.7 L 133.74 -21 C 133.76 -21 133.71 -21.05 133.6 -21.17 L 133.06 -21.72 C 132.8 -21.98 132.49 -22.25 132.17 -22.58 C 131.47 -23.29 130.61 -24.17 129.57 -25.21 L 121.85 -25.21 L 114.17 -25.21 Z M 126.79 -4.2 L 119.78 -4.2 L 119.78 -12.6 L 119.78 -21 L 123.25 -21 L 126.79 -21 L 128.19 -19.6 L 128.19 -5.61 Z M 144.94 -4.2 L 144.94 0 L 156.13 0 L 156.13 -4.2 L 153.33 -4.2 L 153.33 -21 L 156.13 -21 L 156.13 -25.21 L 144.94 -25.21 L 144.94 -21 L 147.74 -21 L 147.74 -4.2 Z M 167.4 -25.21 L 167.4 0 L 186.97 0 L 186.97 -12.6 L 180.85 -12.6 L 177.21 -12.6 C 177.21 -12.61 177.21 -11.91 177.21 -10.49 L 177.21 -8.41 L 178.78 -8.41 L 181.41 -8.41 L 181.41 -4.2 L 173 -4.2 L 173 -21 L 181.41 -21 L 181.41 -16.8 L 184.2 -16.8 L 186.97 -16.8 L 186.97 -21 L 186.97 -25.21 Z M 198.23 -4.2 L 198.23 0 L 209.43 0 L 209.43 -4.2 L 206.62 -4.2 L 206.62 -21 L 209.43 -21 L 209.43 -25.21 L 198.23 -25.21 L 198.23 -21 L 201.03 -21 L 201.03 -4.2 Z M 219.58 -23.11 L 219.58 -21 L 225.17 -21 L 225.17 0 L 230.77 0 L 230.77 -21 L 236.38 -21 L 236.38 -25.21 L 227.97 -25.21 L 219.58 -25.21 Z M 246.79 -12.6 L 246.79 0 L 252.4 0 L 252.4 -8.41 L 260.8 -8.41 L 260.8 0 L 266.36 0 L 266.36 -25.21 L 256.6 -25.21 L 246.79 -25.21 Z M 260.8 -12.6 L 252.4 -12.6 L 252.4 -16.8 L 252.4 -21 L 256.6 -21 L 260.8 -21 Z M 277.9 -9.48 L 277.9 0 L 278.07 0 L 278.1 0 L 278.14 0 L 278.17 0 L 278.21 0 L 278.24 0 L 278.27 0 L 278.31 0 L 278.34 0 L 278.38 0 L 278.41 0 L 278.44 0 L 278.48 0 L 278.51 0 L 278.55 0 L 278.58 0 L 278.62 0 L 278.65 0 L 278.68 0 L 278.72 0 L 278.75 0 L 278.79 0 L 278.82 0 L 278.85 0 L 278.89 0 L 278.92 0 L 278.96 0 L 278.99 0 L 279.03 0 L 279.06 0 L 279.09 0 L 279.13 0 L 279.16 0 L 279.2 0 L 279.23 0 L 279.27 0 L 279.3 0 L 279.33 0 L 279.37 0 L 279.4 0 L 279.44 0 L 279.47 0 L 279.5 0 L 279.54 0 L 279.57 0 L 279.61 0 L 279.64 0 L 279.68 0 L 279.71 0 L 279.74 0 L 279.78 0 L 279.81 0 L 279.85 0 L 279.88 0 L 279.91 0 L 279.97 0 L 280 0 L 280.03 0 L 280.07 0 L 280.1 0 L 280.14 0 L 280.17 0 L 280.21 0 L 280.24 0 L 280.27 0 L 280.31 0 L 280.34 0 L 280.38 0 L 280.41 0 L 280.44 0 L 280.48 0 L 280.51 0 L 280.55 0 L 280.58 0 L 280.62 0 L 280.65 0 L 280.68 0 L 280.72 0 L 280.75 0 L 280.79 0 L 280.82 0 L 280.85 0 L 280.89 0 L 280.92 0 L 280.96 0 L 280.99 0 L 284.9 0 L 291.91 0 L 291.91 -1.57 L 291.91 -4.2 L 283.5 -4.2 L 283.5 -25.21 L 280.7 -25.21 L 277.9 -25.21 Z M 325.88 -8.41 L 325.88 0 L 338.1 0 L 345.44 0 L 345.44 -4.2 L 345.44 -11.19 C 345.27 -11.26 340.62 -13.13 331.48 -16.8 L 331.48 -21 L 339.89 -21 L 339.89 -16.8 L 342.68 -16.8 L 345.44 -16.8 L 345.44 -21.17 L 345.44 -25.21 L 325.88 -25.21 L 325.88 -14 C 326.51 -13.74 331.17 -11.88 339.89 -8.41 L 339.89 -4.2 L 331.48 -4.2 L 331.48 -8.41 Z M 356.98 -25.21 L 356.98 0 L 376.55 0 L 376.55 -25.21 Z M 371 -4.2 L 362.59 -4.2 L 362.59 -21 L 371 -21 Z M 388.09 -9.48 L 388.09 0 L 388.26 0 L 388.29 0 L 388.33 0 L 388.36 0 L 388.4 0 L 388.43 0 L 388.47 0 L 388.5 0 L 388.53 0 L 388.57 0 L 388.6 0 L 388.64 0 L 388.67 0 L 388.71 0 L 388.74 0 L 388.77 0 L 388.81 0 L 388.84 0 L 388.88 0 L 388.91 0 L 388.94 0 L 388.98 0 L 389.01 0 L 389.05 0 L 389.08 0 L 389.12 0 L 389.15 0 L 389.18 0 L 389.22 0 L 389.25 0 L 389.29 0 L 389.32 0 L 389.35 0 L 389.39 0 L 389.42 0 L 389.46 0 L 389.49 0 L 389.53 0 L 389.56 0 L 389.59 0 L 389.63 0 L 389.66 0 L 389.7 0 L 389.73 0 L 389.76 0 L 389.8 0 L 389.83 0 L 389.87 0 L 389.9 0 L 389.94 0 L 389.97 0 L 390 0 L 390.04 0 L 390.07 0 L 390.11 0 L 390.16 0 L 390.19 0 L 390.23 0 L 390.26 0 L 390.29 0 L 390.33 0 L 390.36 0 L 390.4 0 L 390.43 0 L 390.47 0 L 390.5 0 L 390.53 0 L 390.57 0 L 390.6 0 L 390.64 0 L 390.67 0 L 390.7 0 L 390.74 0 L 390.77 0 L 390.81 0 L 390.84 0 L 390.88 0 L 390.91 0 L 390.94 0 L 390.98 0 L 391.01 0 L 391.05 0 L 391.08 0 L 391.11 0 L 391.15 0 L 391.18 0 L 395.1 0 L 402.1 0 L 402.1 -1.57 L 402.1 -4.2 L 393.7 -4.2 L 393.7 -25.21 L 390.89 -25.21 L 388.09 -25.21 Z M 413.32 -13.69 L 413.32 -2.91 C 414.6 -1.59 415.52 -0.63 416.12 0 L 420.67 0 L 430.12 0 C 431.04 -0.91 431.96 -1.81 432.89 -2.73 L 432.89 -25.21 L 427.33 -25.21 L 427.33 -14.66 L 427.33 -5.64 C 426.8 -5.11 426.34 -4.63 425.93 -4.2 L 423.47 -4.2 L 420.32 -4.2 L 418.92 -5.61 L 418.92 -25.21 L 416.12 -25.21 L 413.32 -25.21 Z M 443.31 -23.11 L 443.31 -21 L 448.9 -21 L 448.9 0 L 454.51 0 L 454.51 -21 L 460.11 -21 L 460.11 -25.21 L 451.71 -25.21 L 443.31 -25.21 Z M 470.25 -4.2 L 470.25 0 L 481.44 0 L 481.44 -4.2 L 478.64 -4.2 L 478.64 -21 L 481.44 -21 L 481.44 -25.21 L 470.25 -25.21 L 470.25 -21 L 473.05 -21 L 473.05 -4.2 Z M 492.71 -25.21 L 492.71 0 L 512.28 0 L 512.28 -25.21 Z M 506.72 -4.2 L 498.32 -4.2 L 498.32 -21 L 506.72 -21 Z M 523.82 -12.6 L 523.82 0 L 526.62 0 L 529.42 0 L 529.42 -16.8 C 532.38 -12.32 535.18 -8.12 537.83 -4.2 L 537.83 0 L 543.39 0 L 543.39 -25.21 L 537.83 -25.21 L 537.83 -12.6 L 529.42 -25.21 L 523.82 -25.21 Z M 554.92 -8.41 L 554.92 0 L 567.14 0 L 574.49 0 L 574.49 -4.2 L 574.49 -11.19 C 574.32 -11.26 569.67 -13.13 560.53 -16.8 L 560.53 -21 L 568.94 -21 L 568.94 -16.8 L 571.72 -16.8 L 574.49 -16.8 L 574.49 -21.17 L 574.49 -25.21 L 554.92 -25.21 L 554.92 -14 C 555.56 -13.74 560.22 -11.88 568.94 -8.41 L 568.94 -4.2 L 560.53 -4.2 L 560.53 -8.41 Z" stroke-linecap="round" />
</g>
</g>
</g>
<g transform="matrix(1.9211538461538462 0 0 1.9211538461538462 622.4881774391339 790.3697652868473)" id="tagline-1c5f2eb6-3935-40fb-810a-770d6c355340-logo"  >
<g style=""  paint-order="stroke"   >
		<g transform="matrix(1 0 0 1 0 0)" id="tagline-1c5f2eb6-3935-40fb-810a-770d6c355340-logo-path-0"  >
<path style="stroke: none; stroke-width: 0; stroke-dasharray: none; stroke-linecap: butt; stroke-dashoffset: 0; stroke-linejoin: miter; stroke-miterlimit: 4; fill: rgb(42,193,255); fill-rule: nonzero; opacity: 1;"  paint-order="stroke"  transform=" translate(-157.125, 16.07)" d="M 8.72 0 L 4.12 0 L 4.12 -32.14 L 21.72 -32.14 Q 29.52 -32.14 29.52 -24.32 L 29.52 -24.32 L 29.52 -19.75 Q 29.52 -11.92 21.72 -11.92 L 21.72 -11.92 L 8.72 -11.92 L 8.72 0 Z M 8.72 -27.55 L 8.72 -16.52 L 21.47 -16.52 Q 23.31 -16.52 24.12 -17.33 Q 24.93 -18.13 24.93 -19.97 L 24.93 -19.97 L 24.93 -24.1 Q 24.93 -25.93 24.12 -26.74 Q 23.31 -27.55 21.47 -27.55 L 21.47 -27.55 L 8.72 -27.55 Z M 47.87 0 L 43.28 0 L 43.28 -32.14 L 60.87 -32.14 Q 68.67 -32.14 68.67 -24.32 L 68.67 -24.32 L 68.67 -20.67 Q 68.67 -13.94 62.94 -13 L 62.94 -13 L 68.99 0 L 63.9 0 L 57.94 -12.84 L 47.87 -12.84 L 47.87 0 Z M 47.87 -27.55 L 47.87 -17.44 L 60.63 -17.44 Q 62.46 -17.44 63.27 -18.25 Q 64.08 -19.05 64.08 -20.89 L 64.08 -20.89 L 64.08 -24.1 Q 64.08 -25.93 63.27 -26.74 Q 62.46 -27.55 60.63 -27.55 L 60.63 -27.55 L 47.87 -27.55 Z M 83.68 -4.6 L 83.68 -4.6 L 83.68 -27.55 Q 83.68 -28.49 84.04 -29.33 Q 84.4 -30.17 85.03 -30.79 Q 85.66 -31.4 86.5 -31.77 Q 87.34 -32.14 88.28 -32.14 L 88.28 -32.14 L 106.64 -32.14 Q 107.58 -32.14 108.42 -31.77 Q 109.26 -31.4 109.89 -30.79 Q 110.52 -30.17 110.87 -29.33 Q 111.23 -28.49 111.23 -27.55 L 111.23 -27.55 L 111.23 -4.6 Q 111.23 -3.65 110.87 -2.81 Q 110.52 -1.97 109.89 -1.34 Q 109.26 -0.72 108.42 -0.36 Q 107.58 0 106.64 0 L 106.64 0 L 88.28 0 Q 87.34 0 86.5 -0.36 Q 85.66 -0.72 85.03 -1.34 Q 84.4 -1.97 84.04 -2.81 Q 83.68 -3.65 83.68 -4.6 Z M 88.28 -27.55 L 88.28 -4.6 L 106.64 -4.6 L 106.64 -27.55 L 88.28 -27.55 Z M 131.42 0 L 126.83 0 L 126.83 -32.14 L 144.42 -32.14 Q 152.22 -32.14 152.22 -24.32 L 152.22 -24.32 L 152.22 -19.75 Q 152.22 -11.92 144.42 -11.92 L 144.42 -11.92 L 131.42 -11.92 L 131.42 0 Z M 131.42 -27.55 L 131.42 -16.52 L 144.18 -16.52 Q 146.01 -16.52 146.82 -17.33 Q 147.63 -18.13 147.63 -19.97 L 147.63 -19.97 L 147.63 -24.1 Q 147.63 -25.93 146.82 -26.74 Q 146.01 -27.55 144.18 -27.55 L 144.18 -27.55 L 131.42 -27.55 Z M 165.98 -4.6 L 165.98 -4.6 L 165.98 -27.55 Q 165.98 -28.49 166.34 -29.33 Q 166.7 -30.17 167.32 -30.79 Q 167.95 -31.4 168.79 -31.77 Q 169.63 -32.14 170.57 -32.14 L 170.57 -32.14 L 188.93 -32.14 Q 189.87 -32.14 190.72 -31.77 Q 191.56 -31.4 192.18 -30.79 Q 192.81 -30.17 193.17 -29.33 Q 193.53 -28.49 193.53 -27.55 L 193.53 -27.55 L 193.53 -4.6 Q 193.53 -3.65 193.17 -2.81 Q 192.81 -1.97 192.18 -1.34 Q 191.56 -0.72 190.72 -0.36 Q 189.87 0 188.93 0 L 188.93 0 L 170.57 0 Q 169.63 0 168.79 -0.36 Q 167.95 -0.72 167.32 -1.34 Q 166.7 -1.97 166.34 -2.81 Q 165.98 -3.65 165.98 -4.6 Z M 170.57 -27.55 L 170.57 -4.6 L 188.93 -4.6 L 188.93 -27.55 L 170.57 -27.55 Z M 208.67 -4.6 L 208.67 -4.6 L 208.67 -8.72 L 213.27 -8.72 L 213.27 -4.6 L 229.32 -4.6 L 229.32 -13.76 L 213.72 -13.76 Q 212.78 -13.76 211.94 -14.13 Q 211.09 -14.5 210.47 -15.12 Q 209.84 -15.74 209.48 -16.58 Q 209.12 -17.42 209.12 -18.36 L 209.12 -18.36 L 209.12 -27.55 Q 209.12 -28.49 209.48 -29.33 Q 209.84 -30.17 210.47 -30.79 Q 211.09 -31.4 211.94 -31.77 Q 212.78 -32.14 213.72 -32.14 L 213.72 -32.14 L 229.32 -32.14 Q 230.26 -32.14 231.1 -31.77 Q 231.94 -31.4 232.57 -30.79 Q 233.2 -30.17 233.55 -29.33 Q 233.91 -28.49 233.91 -27.55 L 233.91 -27.55 L 233.91 -23.4 L 229.32 -23.4 L 229.32 -27.55 L 213.72 -27.55 L 213.72 -18.36 L 229.32 -18.36 Q 230.26 -18.36 231.1 -18 Q 231.94 -17.64 232.57 -17.01 Q 233.2 -16.39 233.55 -15.55 Q 233.91 -14.7 233.91 -13.76 L 233.91 -13.76 L 233.91 -4.6 Q 233.91 -3.65 233.55 -2.81 Q 233.2 -1.97 232.57 -1.34 Q 231.94 -0.72 231.1 -0.36 Q 230.26 0 229.32 0 L 229.32 0 L 213.27 0 Q 212.33 0 211.49 -0.36 Q 210.65 -0.72 210.02 -1.34 Q 209.39 -1.97 209.03 -2.81 Q 208.67 -3.65 208.67 -4.6 Z M 251.37 0 L 246.77 0 L 259.17 -32.14 L 263.76 -32.14 L 276.16 0 L 271.56 0 L 268.72 -7.4 L 254.21 -7.4 L 251.37 0 Z M 261.48 -26.16 L 255.96 -11.99 L 266.95 -11.99 L 261.48 -26.16 Z M 310.13 0 L 289.02 0 L 289.02 -32.14 L 293.61 -32.14 L 293.61 -4.6 L 310.13 -4.6 L 310.13 0 Z" stroke-linecap="round" />
</g>
</g>
</g>
</svg>